HIERARCHY
ROOT Hips
{
	OFFSET 0.00000 0.00000 0.00000
	CHANNELS 6 Xposition Yposition Zposition Zrotation Yrotation Xrotation 
	JOINT LHipJoint
	{
		OFFSET 0 0 0
		CHANNELS 3 Zrotation Yrotation Xrotation
		JOINT LeftHip
		{
			OFFSET 1.44361 -1.63093 0.70831
			CHANNELS 3 Zrotation Yrotation Xrotation
			JOINT LeftKnee
			{
				OFFSET 2.20103 -6.04728 0.00000
				CHANNELS 3 Zrotation Yrotation Xrotation
				JOINT LeftAnkle
				{
					OFFSET 2.54154 -6.98283 0.00000
					CHANNELS 3 Zrotation Yrotation Xrotation
					JOINT LeftToe
					{
						OFFSET 0.05971 -0.16406 1.77582
						CHANNELS 3 Zrotation Yrotation Xrotation
						End Site
						{
							OFFSET 0.00000 -0.00000 0.90832
						}
					}
				}
			}
		}
	}
	JOINT RHipJoint
	{
		OFFSET 0 0 0
		CHANNELS 3 Zrotation Yrotation Xrotation
		JOINT RightHip
		{
			OFFSET -1.65838 -1.63093 0.70830
			CHANNELS 3 Zrotation Yrotation Xrotation
			JOINT RightKnee
			{
				OFFSET -2.26926 -6.23475 0.00000
				CHANNELS 3 Zrotation Yrotation Xrotation
				JOINT RightAnkle
				{
					OFFSET -2.34808 -6.45129 0.00000
					CHANNELS 3 Zrotation Yrotation Xrotation
					JOINT RightToe
					{
						OFFSET -0.18633 -0.51195 1.68539
						CHANNELS 3 Zrotation Yrotation Xrotation
						End Site
						{
							OFFSET -0.00000 -0.00000 0.88927
						}
					}
				}
			}
		}
	}
	JOINT lowerback
	{
		OFFSET 0 0 0
		CHANNELS 3 Zrotation Yrotation Xrotation
		JOINT Chest
		{
			OFFSET -0.10393 2.01691 0.06920
			CHANNELS 3 Zrotation Yrotation Xrotation
			JOINT Chest2
			{
				OFFSET 0.04092 2.01302 -0.05283
				CHANNELS 3 Zrotation Yrotation Xrotation
				JOINT lowerneck
				{
					OFFSET 0 0 0
					CHANNELS 3 Zrotation Yrotation Xrotation
					JOINT Neck
					{
						OFFSET -0.02870 1.58978 -0.03113
						CHANNELS 3 Zrotation Yrotation Xrotation
						JOINT Head
						{
							OFFSET 0.11532 1.54326 -0.29195
							CHANNELS 3 Zrotation Yrotation Xrotation
							End Site
							{
								OFFSET 0.04056 1.59999 -0.09535
							}
						}
					}
				}
				JOINT LeftCollar
				{
					OFFSET 0 0 0
					CHANNELS 3 Zrotation Yrotation Xrotation
					JOINT LeftShoulder
					{
						OFFSET 3.30641 1.15764 0.01104
CHANNELS 3 Zrotation Xrotation Yrotation
						JOINT LeftElbow
						{
OFFSET 0 -4.632080 0.000000
CHANNELS 3 Zrotation Xrotation Yrotation
							JOINT LeftWrist
							{
OFFSET 0 -3.419240 -0.000000
CHANNELS 3 Zrotation Xrotation Yrotation
								JOINT lhand
								{
									OFFSET 0 0 0
CHANNELS 3 Zrotation Xrotation Yrotation
									JOINT LFingers
									{
OFFSET 0 -0.625370 -0.000000
CHANNELS 3 Zrotation Xrotation Yrotation
										End Site
										{
OFFSET 0 -0.504190 -0.000000
										}
									}
								}
								JOINT LThumb
								{
OFFSET 0 0.000000 0.000000
CHANNELS 3 Zrotation Xrotation Yrotation
									End Site
									{
OFFSET 0 -0.511890 0.511890
									}
								}
							}
						}
					}
				}
				JOINT RightCollar
				{
					OFFSET 0 0 0
					CHANNELS 3 Zrotation Yrotation Xrotation
					JOINT RightShoulder
					{
						OFFSET -3.78081 1.02180 -0.16609
CHANNELS 3 Zrotation Xrotation Yrotation
						JOINT RightElbow
						{
OFFSET 0 -4.406400 -0.000000
CHANNELS 3 Zrotation Xrotation Yrotation
							JOINT RightWrist
							{
OFFSET 0 -3.446750 0.000000
CHANNELS 3 Zrotation Xrotation Yrotation
								JOINT rhand
								{
									OFFSET 0 0 0
CHANNELS 3 Zrotation Xrotation Yrotation
									JOINT RFingers
									{
OFFSET 0 -0.513670 -0.000000
CHANNELS 3 Zrotation Xrotation Yrotation
										End Site
										{
OFFSET 0 -0.414140 -0.000000
										}
									}
								}
								JOINT RThumb
								{
OFFSET 0 0.000000 0.000000
CHANNELS 3 Zrotation Xrotation Yrotation
									End Site
									{
OFFSET 0 -0.420460 0.420460
									}
								}
							}
						}
					}
				}
			}
		}
	}
}
MOTION
Frames: 12
Frame Time: 0.008333333333333333
8.462414 15.658810 11.738456 178.078429 6.907082 -174.191346 0.000000 0.000000 0.000000 -21.974641 -11.725210 -34.724308 4.515524 12.815314 38.682934 0.476589 -1.295316 -12.662638 7.517741 -15.752209 -50.805252 0.000000 0.000000 0.000000 1.357277 12.311378 -1.425819 -12.971308 -18.760891 69.025568 -39.962958 21.900809 -164.284445 -3.869146 11.981711 -35.670853 -7.146885 3.398565 -1.962066 2.300055 4.982409 4.768818 6.721958 2.187551 5.291795 -2.458257 -2.086291 -4.278580 4.576730 -5.467333 22.647751 1.396986 -3.063162 7.857864 0.000000 0.000000 0.000000 37.670603 28.768820 -34.258104 16.938102 -26.776003 4.059467 35.897833 -4.733865 17.987320 0.000000 0.000000 0.000000 -7.125000 0.000000 0.000000 5.042639 8.204027 4.291386 0.000000 0.000000 0.000000 -29.573291 -3.253457 17.994193 -24.373007 -35.553653 -7.923507 -24.716040 22.224553 41.948950 0.000000 0.000000 0.000000 7.125000 0.000000 0.000000 21.166116 73.775625 -14.596123
8.407242 15.673631 11.679768 177.501287 6.738645 -174.498037 0.000000 0.000000 0.000000 -23.101122 -11.487430 -33.880123 4.384572 12.654342 38.089403 0.476968 -1.781749 -12.556513 7.389223 -15.650628 -50.330557 0.000000 0.000000 0.000000 0.097030 14.392334 -5.663458 -12.241524 -18.482272 66.743505 -39.601473 20.730028 -162.394535 -3.698437 11.745932 -34.841759 -7.167656 3.033294 -1.423599 2.133566 4.498627 5.032453 6.513873 1.950852 5.357785 -2.442571 -1.898274 -3.950739 4.463790 -5.185199 22.475852 1.387358 -2.949086 7.725992 0.000000 0.000000 0.000000 35.639410 27.085859 -32.334713 16.864107 -26.678208 4.026202 36.581100 -6.167795 19.496760 0.000000 0.000000 0.000000 -7.125000 0.000000 0.000000 5.216918 6.266680 4.638158 0.000000 0.000000 0.000000 -28.551474 -1.641570 16.814378 -23.907020 -35.063758 -7.653922 -25.784321 23.719659 43.250251 0.000000 0.000000 0.000000 7.125000 0.000000 0.000000 22.371948 75.299074 -16.156570
8.358411 15.690283 11.636051 177.019958 6.702268 -174.918858 0.000000 0.000000 0.000000 -24.070569 -11.058587 -33.023644 4.260030 12.497350 37.516761 0.474106 -2.079691 -12.456482 7.348169 -15.618229 -50.179090 0.000000 0.000000 0.000000 -1.226375 16.254330 -10.430041 -11.817002 -18.310457 65.405622 -39.379974 19.327112 -161.538807 -3.404968 11.308065 -33.344158 -7.174477 2.691941 -0.621505 1.989691 4.039643 5.332899 6.313784 1.737226 5.305277 -2.489621 -1.691200 -3.638610 4.351483 -4.845224 22.205252 1.392665 -2.805491 7.564531 0.000000 0.000000 0.000000 33.665634 25.238888 -30.331958 16.853271 -26.663932 4.021293 36.804993 -5.726009 19.820408 0.000000 0.000000 0.000000 -7.125000 0.000000 0.000000 5.304964 5.832857 4.758994 0.000000 0.000000 0.000000 -27.506056 -0.122784 15.601664 -23.408379 -34.528599 -7.370106 -25.817609 24.407258 43.546713 0.000000 0.000000 0.000000 7.125000 0.000000 0.000000 22.903249 75.568253 -16.658177
8.312975 15.707917 11.600352 176.589942 6.736615 -175.400801 0.000000 0.000000 0.000000 -24.955917 -10.527422 -32.160581 4.138923 12.342490 36.955305 0.469508 -2.276687 -12.359715 7.353957 -15.622881 -50.200726 0.000000 0.000000 0.000000 -2.583605 17.999062 -15.479897 -11.555963 -18.195840 64.573391 -39.233444 17.799876 -161.236930 -3.045756 10.761970 -31.488542 -7.173828 2.363397 0.321773 1.857927 3.593940 5.653059 6.117978 1.535957 5.189308 -2.570269 -1.473920 -3.334893 4.239517 -4.474274 21.881793 1.405972 -2.646087 7.387224 0.000000 0.000000 0.000000 31.722608 23.304084 -28.286701 16.876259 -26.694385 4.031570 36.782870 -4.279692 19.509011 0.000000 0.000000 0.000000 -7.125000 0.000000 0.000000 5.346830 6.204240 4.758832 0.000000 0.000000 0.000000 -26.447999 1.346142 14.371329 -22.892251 -33.969199 -7.078668 -25.296613 24.662401 43.305038 0.000000 0.000000 0.000000 7.125000 0.000000 0.000000 23.073308 75.165714 -16.592728
8.278564 15.721991 11.578325 176.163831 6.595821 -176.039005 0.000000 0.000000 0.000000 -25.797815 -10.140797 -31.199509 4.044639 12.218838 36.511609 0.462176 -2.338822 -12.249014 7.459968 -15.706575 -50.592092 0.000000 0.000000 0.000000 -3.873817 19.253006 -20.762712 -11.763445 -18.286011 65.233881 -39.372697 16.966828 -162.739687 -1.910710 8.041816 -23.200811 -7.312945 1.969876 1.515416 1.739923 3.067763 6.040584 6.021440 1.297879 5.011572 -2.574611 -2.080132 -3.015551 3.828659 -3.757077 21.470134 1.394884 -1.811552 7.169028 0.000000 0.000000 0.000000 30.008546 21.301392 -26.568246 17.028292 -26.894554 4.100401 37.216507 -3.286053 19.393720 0.000000 0.000000 0.000000 -7.125000 0.000000 0.000000 5.637280 6.227814 5.018019 0.000000 0.000000 0.000000 -25.396279 2.869282 13.448828 -22.533338 -33.572960 -6.879163 -25.063309 24.661885 43.273968 0.000000 0.000000 0.000000 7.125000 0.000000 0.000000 23.322930 75.051389 -16.721520
8.246867 15.735189 11.559664 175.738683 6.411914 -176.715673 0.000000 0.000000 0.000000 -26.629018 -9.789752 -30.214311 3.956959 12.102869 36.096899 0.454171 -2.367760 -12.134884 7.590650 -15.809725 -51.074468 0.000000 0.000000 0.000000 -5.147532 20.386140 -26.102870 -12.086255 -18.426592 66.261811 -39.582296 16.304656 -164.686662 -0.584690 4.786509 -13.329792 -7.486467 1.560359 2.770686 1.625306 2.521777 6.444691 5.949338 1.050742 4.818632 -2.560169 -2.889050 -2.692362 3.344227 -2.954649 21.036763 1.377791 -0.810830 6.940768 0.000000 0.000000 0.000000 28.350845 19.281991 -24.930234 17.212091 -27.136499 4.183646 37.762330 -2.403843 19.326703 0.000000 0.000000 0.000000 -7.125000 0.000000 0.000000 5.988920 6.165772 5.341045 0.000000 0.000000 0.000000 -24.346119 4.405766 12.602100 -22.213125 -33.216885 -6.702289 -24.900823 24.598437 43.294738 0.000000 0.000000 0.000000 7.125000 0.000000 0.000000 23.592137 75.008008 -16.898124
8.230285 15.743177 11.547709 175.223259 6.064377 -177.615708 0.000000 0.000000 0.000000 -27.544255 -9.539248 -29.041959 3.891203 12.013776 35.781287 0.443999 -2.364715 -11.993207 7.649937 -15.855511 -51.291589 0.000000 0.000000 0.000000 -6.281036 20.747239 -31.359098 -12.953142 -18.744782 68.960042 -40.075361 19.727578 -166.396496 -3.456737 -5.301929 17.403371 -7.974095 1.134748 4.215689 1.505685 1.969910 6.962907 6.076048 0.796433 4.654839 -2.562234 -2.605274 -2.412300 3.121646 -2.506721 20.425370 1.334648 -0.617944 6.678099 0.000000 0.000000 0.000000 26.966911 17.180774 -23.690620 17.607495 -27.649013 4.366968 38.616277 -2.256836 19.431054 0.000000 0.000000 0.000000 -7.125000 0.000000 0.000000 6.497021 5.808865 5.848388 0.000000 0.000000 0.000000 -23.314787 6.120842 11.886298 -22.067994 -33.053483 -6.623015 -23.791785 23.803707 43.431629 0.000000 0.000000 0.000000 7.125000 0.000000 0.000000 25.365539 74.708504 -18.039953
8.215918 15.750469 11.536324 174.698571 5.693145 -178.532489 0.000000 0.000000 0.000000 -28.467170 -9.310074 -27.851996 3.828129 11.928048 35.477960 0.434034 -2.358352 -11.854620 7.694394 -15.889754 -51.454244 0.000000 0.000000 0.000000 -7.374824 21.024685 -36.520928 -14.014001 -19.088260 72.227662 -42.927266 25.768311 -149.426815 -6.253376 -14.667442 45.986560 -8.510914 0.708202 5.672877 1.390448 1.417230 7.491617 6.240149 0.540318 4.500946 -2.568052 -2.268920 -2.142487 2.907571 -2.076540 19.804449 1.289088 -0.464581 6.415475 0.000000 0.000000 0.000000 25.616457 15.054793 -22.498018 18.038657 -28.205175 4.568265 39.371318 -2.177912 19.513265 0.000000 0.000000 0.000000 -7.125000 0.000000 0.000000 6.948196 5.505287 6.297184 0.000000 0.000000 0.000000 -22.294553 7.845501 11.171210 -21.932974 -32.901137 -6.549409 -22.629538 23.014873 43.550703 0.000000 0.000000 0.000000 7.125000 0.000000 0.000000 27.158781 74.375343 -19.174182
8.214187 15.753985 11.527020 174.132247 5.187565 -179.499621 0.000000 0.000000 0.000000 -29.420779 -9.221204 -26.589316 3.778853 11.859894 35.238395 0.426732 -2.336933 -11.753796 7.641927 -15.849295 -51.262170 0.000000 0.000000 0.000000 -8.187907 20.908283 -40.912345 -16.504041 -19.573882 79.660244 -65.781328 52.446006 26.769956 -6.668626 -15.037581 47.593795 -9.337249 0.280349 7.155434 1.314667 0.860048 8.062593 6.640849 0.271760 4.419432 -2.599046 -1.936536 -1.942245 2.657620 -1.650959 19.175976 1.233699 -0.313831 6.167472 0.000000 0.000000 0.000000 24.438211 12.751473 -21.541433 18.687198 -29.021612 4.881447 39.155174 -2.375287 19.335687 0.000000 0.000000 0.000000 -7.125000 0.000000 0.000000 6.849048 5.778659 6.170288 0.000000 0.000000 0.000000 -21.361173 9.577954 10.407998 -21.811704 -32.763316 -6.483744 -21.405370 22.579123 43.469730 0.000000 0.000000 0.000000 7.125000 0.000000 0.000000 28.498431 73.861162 -19.843926
8.213399 15.757653 11.517412 173.612758 4.671010 -180.398164 0.000000 0.000000 0.000000 -30.324866 -9.194605 -25.372902 3.732265 11.795247 35.011481 0.422062 -2.292733 -11.694347 7.607583 -15.822830 -51.136496 0.000000 0.000000 0.000000 -8.892411 20.697145 -44.961272 -18.415727 -19.939188 85.363266 -69.914885 68.797254 138.551896 -6.666174 -15.002668 47.522365 -10.143881 -0.141172 8.586902 1.257358 0.306246 8.607103 7.057317 0.003910 4.349766 -2.623707 -1.608475 -1.765864 2.379001 -1.224713 18.581437 1.168154 -0.161406 5.935362 0.000000 0.000000 0.000000 23.301590 10.409146 -20.609569 19.348445 -29.845628 5.204952 39.028999 -2.653556 19.222375 0.000000 0.000000 0.000000 -7.125000 0.000000 0.000000 6.793078 5.949895 6.096352 0.000000 0.000000 0.000000 -20.445433 11.281295 9.596995 -21.657885 -32.587707 -6.400813 -20.356984 22.333095 43.212018 0.000000 0.000000 0.000000 7.125000 0.000000 0.000000 29.257345 73.268900 -20.048316
8.215346 15.761764 11.506918 173.229259 4.122590 -181.097549 0.000000 0.000000 0.000000 -31.085157 -9.348816 -24.290829 3.693482 11.740778 34.821300 0.425037 -2.182389 -11.755036 7.625866 -15.837002 -51.203622 0.000000 0.000000 0.000000 -9.281644 20.210928 -48.015743 -18.648098 -19.955144 86.044315 -19.691316 55.164480 63.298001 -5.450876 -13.791644 42.576741 -10.893300 -0.544306 9.870029 1.253680 -0.237739 9.074766 7.519571 -0.261889 4.314499 -2.629982 -1.292968 -1.658766 2.017137 -0.796535 18.085430 1.073118 -0.004111 5.749400 0.000000 0.000000 0.000000 22.285831 7.953561 -19.749481 20.046586 -30.691652 5.558431 39.164063 -3.166709 19.295668 0.000000 0.000000 0.000000 -7.125000 0.000000 0.000000 6.862475 5.824568 6.176189 0.000000 0.000000 0.000000 -19.580910 12.900105 8.647226 -21.409557 -32.302382 -6.267751 -19.819003 22.637947 42.441125 0.000000 0.000000 0.000000 7.125000 0.000000 0.000000 28.330024 72.449921 -18.901497
8.215707 15.769863 11.498100 173.103810 3.684618 -181.565329 0.000000 0.000000 0.000000 -31.501697 -9.546880 -23.478286 3.661818 11.696181 34.665694 0.430612 -1.998861 -11.867864 7.682999 -15.880659 -51.412091 0.000000 0.000000 0.000000 -9.365337 19.801378 -51.086058 -17.438827 -19.677329 82.406364 7.929469 34.240217 14.612797 -3.853947 -11.413533 34.314566 -11.341433 -0.913459 11.009476 1.301898 -0.737253 9.443507 7.869593 -0.495691 4.233043 -2.594871 -0.978033 -1.556405 1.635662 -0.364148 17.632659 0.965454 0.160940 5.579414 0.000000 0.000000 0.000000 21.341956 5.525016 -18.951692 20.819587 -31.608701 5.959047 39.031424 -3.264470 19.155071 0.000000 0.000000 0.000000 -7.125000 0.000000 0.000000 6.806087 6.028249 6.099565 0.000000 0.000000 0.000000 -18.677713 14.470919 7.498906 -21.094348 -31.936402 -6.100621 -19.418708 23.232780 41.733632 0.000000 0.000000 0.000000 7.125000 0.000000 0.000000 27.426700 71.726515 -17.846086
